<?xml version="1.0" encoding="UTF-8" standalone="no"?>
<!-- Generator: Adobe Illustrator 16.0.0, SVG Export Plug-In . SVG Version: 6.00 Build 0)  -->

<svg
   xmlns:dc="http://purl.org/dc/elements/1.1/"
   xmlns:cc="http://creativecommons.org/ns#"
   xmlns:rdf="http://www.w3.org/1999/02/22-rdf-syntax-ns#"
   xmlns:svg="http://www.w3.org/2000/svg"
   xmlns="http://www.w3.org/2000/svg"
   xmlns:sodipodi="http://sodipodi.sourceforge.net/DTD/sodipodi-0.dtd"
   xmlns:inkscape="http://www.inkscape.org/namespaces/inkscape"
   version="1.1"
   id="Capa_1"
   x="0px"
   y="0px"
   width="612.032px"
   height="612.032px"
   viewBox="0 0 612.032 612.032"
   style="enable-background:new 0 0 612.032 612.032;"
   xml:space="preserve"
   inkscape:version="0.91 r13725"
   sodipodi:docname="001-pencil-outline.svg"><metadata
     id="metadata45"><rdf:RDF><cc:Work
         rdf:about=""><dc:format>image/svg+xml</dc:format><dc:type
           rdf:resource="http://purl.org/dc/dcmitype/StillImage" /></cc:Work></rdf:RDF></metadata><defs
     id="defs43" /><sodipodi:namedview
     pagecolor="#ffffff"
     bordercolor="#666666"
     borderopacity="1"
     objecttolerance="10"
     gridtolerance="10"
     guidetolerance="10"
     inkscape:pageopacity="0"
     inkscape:pageshadow="2"
     inkscape:window-width="741"
     inkscape:window-height="480"
     id="namedview41"
     showgrid="false"
     inkscape:zoom="0.38560076"
     inkscape:cx="306.01599"
     inkscape:cy="306.01599"
     inkscape:window-x="75"
     inkscape:window-y="34"
     inkscape:window-maximized="0"
     inkscape:current-layer="Capa_1" /><g
     id="g3"
     style="fill:#007f6c;fill-opacity:1"><g
       id="g5"
       style="fill:#007f6c;fill-opacity:1"><path
         d="M500.766,9.112c0,0-20.503-20.503-41.006,0L41.079,427.793l-10.671,10.671l116.599,116.628l0,0l17.091,17.091l9.456,9.456    l20.445-20.445l-0.029-0.029l327.183-327.182l0.028,0.029l20.445-20.445l-0.028-0.029l61.307-61.307    c20.503-20.503,0-41.006,0-41.006L500.766,9.112z M173.467,540.661L71.356,438.551l327.183-327.212L500.65,213.45L173.467,540.661    z M521.095,193.033L418.984,90.922l61.307-61.307l102.111,102.111L521.095,193.033z"
         id="path7"
         style="fill:#007f6c;fill-opacity:1" /><polygon
         points="39.575,572.442 61.09,469.175 30.061,438.146 0.015,612.032 173.525,581.581 164.098,572.183 147.036,555.092       "
         id="polygon9"
         style="fill:#007f6c;fill-opacity:1" /></g></g><g
     id="g11" /><g
     id="g13" /><g
     id="g15" /><g
     id="g17" /><g
     id="g19" /><g
     id="g21" /><g
     id="g23" /><g
     id="g25" /><g
     id="g27" /><g
     id="g29" /><g
     id="g31" /><g
     id="g33" /><g
     id="g35" /><g
     id="g37" /><g
     id="g39" /></svg>