<?xml version="1.0" encoding="UTF-8" standalone="no"?>
<svg
   xmlns:dc="http://purl.org/dc/elements/1.1/"
   xmlns:cc="http://creativecommons.org/ns#"
   xmlns:rdf="http://www.w3.org/1999/02/22-rdf-syntax-ns#"
   xmlns:svg="http://www.w3.org/2000/svg"
   xmlns="http://www.w3.org/2000/svg"
   xml:space="preserve"
   style="enable-background:new 0 0 430.114 430.114;"
   viewBox="0 0 430.114 430.114"
   height="430.114px"
   width="430.114px"
   y="0px"
   x="0px"
   id="Capa_1"
   version="1.1"><metadata
     id="metadata171"><rdf:RDF><cc:Work
         rdf:about=""><dc:format>image/svg+xml</dc:format><dc:type
           rdf:resource="http://purl.org/dc/dcmitype/StillImage" /><dc:title></dc:title></cc:Work></rdf:RDF></metadata><defs
     id="defs169" /><g
     style="fill:#404142;fill-opacity:1"
     id="g134"><path
       style="fill:#404142;fill-opacity:1"
       d="M356.208,107.051c-1.531-5.738-4.64-11.852-6.94-17.205C321.746,23.704,261.611,0,213.055,0   C148.054,0,76.463,43.586,66.905,133.427v18.355c0,0.766,0.264,7.647,0.639,11.089c5.358,42.816,39.143,88.32,64.375,131.136   c27.146,45.873,55.314,90.999,83.221,136.106c17.208-29.436,34.354-59.259,51.17-87.933c4.583-8.415,9.903-16.825,14.491-24.857   c3.058-5.348,8.9-10.696,11.569-15.672c27.145-49.699,70.838-99.782,70.838-149.104v-20.262   C363.209,126.938,356.581,108.204,356.208,107.051z M214.245,199.193c-19.107,0-40.021-9.554-50.344-35.939   c-1.538-4.2-1.414-12.617-1.414-13.388v-11.852c0-33.636,28.56-48.932,53.406-48.932c30.588,0,54.245,24.472,54.245,55.06   C270.138,174.729,244.833,199.193,214.245,199.193z"
       id="Facebook_Places" /></g><g
     id="g137" /><g
     id="g139" /><g
     id="g141" /><g
     id="g143" /><g
     id="g145" /><g
     id="g147" /><g
     id="g149" /><g
     id="g151" /><g
     id="g153" /><g
     id="g155" /><g
     id="g157" /><g
     id="g159" /><g
     id="g161" /><g
     id="g163" /><g
     id="g165" /></svg>