<?xml version="1.0" encoding="UTF-8" standalone="no"?>
<!-- Generator: Adobe Illustrator 16.0.0, SVG Export Plug-In . SVG Version: 6.00 Build 0)  -->

<svg
   xmlns:dc="http://purl.org/dc/elements/1.1/"
   xmlns:cc="http://creativecommons.org/ns#"
   xmlns:rdf="http://www.w3.org/1999/02/22-rdf-syntax-ns#"
   xmlns:svg="http://www.w3.org/2000/svg"
   xmlns="http://www.w3.org/2000/svg"
   xmlns:sodipodi="http://sodipodi.sourceforge.net/DTD/sodipodi-0.dtd"
   xmlns:inkscape="http://www.inkscape.org/namespaces/inkscape"
   version="1.1"
   id="Capa_1"
   x="0px"
   y="0px"
   width="311.541px"
   height="311.541px"
   viewBox="0 0 311.541 311.541"
   style="enable-background:new 0 0 311.541 311.541;"
   xml:space="preserve"
   inkscape:version="0.91 r13725"
   sodipodi:docname="social.svg"><metadata
     id="metadata43"><rdf:RDF><cc:Work
         rdf:about=""><dc:format>image/svg+xml</dc:format><dc:type
           rdf:resource="http://purl.org/dc/dcmitype/StillImage" /></cc:Work></rdf:RDF></metadata><defs
     id="defs41" /><sodipodi:namedview
     pagecolor="#ffffff"
     bordercolor="#666666"
     borderopacity="1"
     objecttolerance="10"
     gridtolerance="10"
     guidetolerance="10"
     inkscape:pageopacity="0"
     inkscape:pageshadow="2"
     inkscape:window-width="741"
     inkscape:window-height="480"
     id="namedview39"
     showgrid="false"
     inkscape:zoom="0.75752473"
     inkscape:cx="155.77049"
     inkscape:cy="155.77049"
     inkscape:window-x="75"
     inkscape:window-y="34"
     inkscape:window-maximized="0"
     inkscape:current-layer="Capa_1" /><g
     id="g3"
     style="fill:#767676;fill-opacity:1"><g
       id="g5"
       style="fill:#767676;fill-opacity:1"><path
         d="M155.771,26.331C69.74,26.331,0,96.071,0,182.102c0,37.488,13.25,71.883,35.314,98.761    c3.404-27.256,30.627-50.308,68.8-61.225c13.946,12.994,31.96,20.878,51.656,20.878c19.233,0,36.894-7.487,50.698-19.936    c38.503,11.871,65.141,36.27,66.017,64.63c24.284-27.472,39.056-63.555,39.056-103.108    C311.541,96.071,241.801,26.331,155.771,26.331z M155.771,222.069c-9.944,0-19.314-2.732-27.634-7.464    c-20.05-11.409-33.855-34.756-33.855-61.711c0-38.143,27.583-69.176,61.489-69.176c33.909,0,61.489,31.033,61.489,69.176    c0,27.369-14.237,51.004-34.786,62.215C174.379,219.523,165.346,222.069,155.771,222.069z"
         id="path7"
         style="fill:#767676;fill-opacity:1" /></g></g><g
     id="g9" /><g
     id="g11" /><g
     id="g13" /><g
     id="g15" /><g
     id="g17" /><g
     id="g19" /><g
     id="g21" /><g
     id="g23" /><g
     id="g25" /><g
     id="g27" /><g
     id="g29" /><g
     id="g31" /><g
     id="g33" /><g
     id="g35" /><g
     id="g37" /></svg>